<svg width="16" height="22" viewBox="0 0 16 22" fill="none" xmlns="http://www.w3.org/2000/svg">
<path d="M8.03 21.2801C6.854 21.2801 5.79 21.0841 4.838 20.6921C3.886 20.2814 3.074 19.7307 2.402 19.0401C1.73 18.3494 1.207 17.5467 0.834 16.6321C0.479 15.7174 0.302002 14.7561 0.302002 13.7481C0.302002 12.7027 0.479 11.7227 0.834 10.8081C1.188 9.87472 1.702 9.06271 2.374 8.37205C3.046 7.66271 3.858 7.10272 4.81 6.69205C5.78 6.28138 6.863 6.07605 8.058 6.07605C9.252 6.07605 10.316 6.28138 11.25 6.69205C12.202 7.10272 13.004 7.65338 13.658 8.34405C14.33 9.03472 14.834 9.83738 15.17 10.7521C15.524 11.6667 15.702 12.6187 15.702 13.6081C15.702 13.8507 15.692 14.0841 15.674 14.3081C15.674 14.5321 15.655 14.7187 15.618 14.8681H4.278C4.334 15.4467 4.474 15.9601 4.698 16.4081C4.922 16.8561 5.211 17.2387 5.566 17.5561C5.92 17.8734 6.322 18.1161 6.77 18.2841C7.218 18.4521 7.684 18.5361 8.17 18.5361C8.916 18.5361 9.616 18.3587 10.27 18.0041C10.942 17.6307 11.399 17.1454 11.642 16.5481L14.862 17.4441C14.32 18.5641 13.452 19.4881 12.258 20.2161C11.082 20.9254 9.672 21.2801 8.03 21.2801ZM11.838 12.4321C11.744 11.3307 11.334 10.4534 10.606 9.80005C9.896 9.12805 9.028 8.79205 8.002 8.79205C7.498 8.79205 7.022 8.88538 6.574 9.07205C6.144 9.24005 5.762 9.48272 5.426 9.80005C5.09 10.1174 4.81 10.5001 4.586 10.9481C4.38 11.3961 4.259 11.8907 4.222 12.4321H11.838Z" fill="#383838"/>
<path d="M0.5 0H15.5V3H0.5V0Z" fill="#383838"/>
</svg>
